# xmcd
#
# Track frame offsets: 
#        150
#        14155
#        31441
#        44391
#        74406
#        101486
#        117727
#        135389
#        149909
#        167146
#        189029
#        204179
#        227302
#        243759
#        257534
#        270828
#        289256
#        311536
#
# Disc length: 4413 seconds
#
# Revision: 0
# Processed by: cddbd v1.5.2PL0 Copyright (c) Steve Scherf et al.
# Submitted via: ExactAudioCopy v0.99pb3
#
DISCID=fd113b12
DTITLE=Various Artist - Trophées Blues sur Seine
DYEAR=2006
DGENRE=Blues
TTITLE0=01 - Mountain Man - Daddy
TTITLE1=02 - Mountain Man - Mrs Dee
TTITLE2=03 - Natural Blues - Going to New York
TTITLE3=04 - Natural Blues - I'm beginning to Wonder
TTITLE4=05 - K-Led BÂ'Sam - Mean World
TTITLE5=06 - K-Led BÂ'Sam - Trouble and Rage
TTITLE6=07 - Plan B - Presque
TTITLE7=08 - Plan B - Fatigue Blues
TTITLE8=09 - Hoochie Coochie Men - Radio Bullshit
TTITLE9=10 - Hoochie Coochie Men - Brotherjohn Five
TTITLE10=11 - Alexx and Mooonshiners - Which way to go
TTITLE11=12 - Couleur Blues - Pussy Cat Moan
TTITLE12=13 - Franck Blackfield - Downhome Blues
TTITLE13=14 - Weiss'n Blues - Rien dans les poches
TTITLE14=15 - Denis Viel Band - Drunk as a Skunk
TTITLE15=16 - Roland Tchakounte - Noum Windo
TTITLE16=17 - Malted Milk - Easy baby
TTITLE17=18 - Charles Pasi - The Girl
EXTD=
EXTT0=
EXTT1=
EXTT2=
EXTT3=
EXTT4=
EXTT5=
EXTT6=
EXTT7=
EXTT8=
EXTT9=
EXTT10=
EXTT11=
EXTT12=
EXTT13=
EXTT14=
EXTT15=
EXTT16=
EXTT17=
PLAYORDER=
